<svg height="50" viewBox="0 0 138 50" width="138" xmlns="http://www.w3.org/2000/svg"><g fill="none" fill-rule="evenodd" transform="translate(0 .807229)"><path d="m0 48.9409439h50.38104v-48.9409439h-50.38104z" fill="#f76200"/><g transform="translate(6.710296)"><path d="m38.2674 25.7600869c0-3.8775691-3.23702-7.019174-7.2243-7.019174-3.98912 0-7.22338 3.1416049-7.22338 7.019174 0 3.8748847 3.23426 7.0182793 7.22338 7.0182793 3.98728 0 7.2243-3.1433946 7.2243-7.0182793zm-28.45882 6.6464944h2.8428v-11.9897282h-2.8428zm-.00046-13.2084311h2.8428v-2.6588662h-2.8428zm7.40554.1284022v13.0800289h3.23058v-13.0800289h3.11558v-2.7872684h-9.46588v2.7872684zm14.75128 14.0012144c-.30176.0380285-.60766.0577139-.92184.0577139-.56074 0-1.12378-.0599509-1.68176-.1691152-.92184 2.5796773-3.4546 4.4372598-6.40412 4.4372598h-13.56172c-3.72876 0-6.77994-2.9635419-6.77994-6.5919122v-13.1793505c0-3.6297125 3.05118-6.5932544 6.77994-6.5932544h13.56172c3.73014 0 6.7758 2.9635419 6.7758 6.5932544v.3561261c.43654-.0671092.87492-.1037955 1.31008-.1037955.44712 0 .88228.0366863 1.3087.1051377-.00828-5.2206477-4.40726-9.49237146-9.78236-9.49237146h-12.78708c-5.38062 0-9.78236 4.27977686-9.78236 9.51160946v12.4290697c0 5.2313852 4.40174 9.5053459 9.78236 9.5053459h12.78708c4.43762 0 8.20732-2.9076176 9.3955-6.8657177zm2.56588-7.5815491c0 1.8772678-1.56216 3.3952777-3.496 3.3952777-1.93476 0-3.50198-1.5180099-3.50198-3.3952777 0-1.8710043 1.56722-3.392146 3.50198-3.392146 1.93384 0 3.496 1.5211417 3.496 3.392146z" fill="#fff"/><path d="m45.130784 49h86.15892v-49h-86.15892z" fill="#0c3148"/><g fill="#fff"><path d="m66.88262 29.3630452c.09338.017001.30084.0353442.62238.0577139.32016.0223697.7084.0353442 1.16196.0353442.78292 0 1.49592-.0894789 2.13808-.2639628.6417-.1749313 1.19416-.4482894 1.65554-.8218639.46184-.3740219.81834-.8500498 1.0695-1.4280836.24978-.5784813.37628-1.2643372.37628-2.0566731 0-.6693023-.10258-1.2867069-.3059-1.8499767-.20424-.5632698-.51382-1.0522721-.92828-1.4634278-.41492-.4111556-.93978-.7305954-1.57366-.9596614-.6348-.2281712-1.38184-.3418095-2.24342-.3418095-.61042 0-1.081.0111849-1.40944.0335546-.3289.0223697-.51612.0425025-.56304.0572665zm-3.9238-10.258311c0-.3346512.04692-.6245629.14122-.868393.09384-.2433826.21528-.4442628.36432-.6062197.14858-.1597198.32062-.2805164.51612-.3641792.19596-.0836628.39606-.1413767.59938-.1709047.29762-.0617405.73232-.1194544 1.30364-.1713522.57178-.0536873 1.41266-.0796362 2.5254-.0796362 1.45636 0 2.7761.1744839 3.9583.5238991 1.1822.3516521 2.19236.8683929 3.03002 1.5546963.83812.6840663 1.48304 1.5265104 1.93844 2.5250951.45402.9963478.68126 2.143915.68126 3.4377802 0 1.2795486-.21206 2.4190627-.6348 3.4158579-.42228.9985848-1.0534 1.8428184-1.89014 2.53628-.83858.6934617-1.87956 1.2213873-3.12478 1.5878035-1.24568.3664162-2.69008.5485058-4.33366.5485058-1.77054 0-3.04244-.0353442-3.818-.1024534-.77464-.0688987-1.1937-.1114012-1.25672-.1261652z"/><path d="m81.194738 19.2422633c0-1.4464268.77556-2.1716535 2.32576-2.1716535h8.0339c.72082 0 1.23372.1489824 1.5387.4464998.3059.2975175.4577.7270163.4577 1.2902861 0 .4124978-.06164.7883093-.18722 1.1323558-.12604.3418095-.22724.5744546-.3059.6952512h-7.93914v2.4450115h6.13042c.72036 0 1.23326.1489824 1.53916.4464999.30498.2975174.4577.7270162.4577 1.290286 0 .4107083-.06256.7883093-.18814 1.1305662-.12512.3440465-.22632.5762443-.30498.6970408h-7.63416v2.5362801h8.3145v3.5643928h-12.2383z"/><path d="m102.844362 32.7451695c-.37628-.7158314-.75624-1.4741652-1.13942-2.2741068-.3841-.7994942-.75992-1.5949618-1.12792-2.3872976-.368-.7918885-.72036-1.5524593-1.05708-2.2852917-.33626-.7305954-.63802-1.3963186-.9039-1.9989591-.2668-.6004036-.48944-1.1153548-.66884-1.5412745-.18124-.4259196-.30268-.7158314-.36432-.8683929-.17296-.4107083-.35696-.8572081-.55292-1.3368151-.1955-.479607-.29302-.9480292-.29302-1.4057139 0-1.0504825.64124-1.5766186 1.92556-1.5766186.50094 0 .91954.0577139 1.25718.1731417.33626.1131909.54372.1932745.62192.2398035.2668.7453595.58788 1.598541.9637 2.5582024.37536.9592141.76682 1.9376661 1.17484 2.9358035.40618.9985847.80592 1.969431 1.19738 2.9138811.39146.94445.74382 1.7663139 1.05754 2.4673812.53222-1.2343617 1.13528-2.6812359 1.80826-4.3415173.67344-1.6607288 1.36298-3.404673 2.0677-5.2322799.2185-.5784813.49312-1.0097697.82202-1.2902861.3289-.2827534.84594-.4241301 1.5502-.4241301.31372 0 .6026.0389233.86894.1154278.2668.0760571.5014.1597199.70518.2509884.2024.0908211.36432.1820896.48208.2733581.11638.0926107.1909.1449559.22218.1615095-.09338.226829-.27048.6585648-.52808 1.290286-.25852.6321686-.57224 1.3779754-.93978 2.2387626-.368.8607873-.7751 1.8016581-1.22176 2.8226126-.4462 1.0209546-.89654 2.0436986-1.35056 3.0718114-.45356 1.0281129-.90022 2.0155128-1.33906 2.9604102-.43838.9440026-.83076 1.7734722-1.17484 2.4893036z"/></g></g></g></svg>